<svg width="214" height="75" viewBox="0 0 214 75" fill="none" xmlns="http://www.w3.org/2000/svg">
<g clip-path="url(#clip0_533_776)">
<path d="M28.9471 38.1575C28.8876 38.2434 28.6755 38.2563 28.4211 38.1575C28.1665 38.0587 27.9883 37.8138 27.9162 37.8267C27.8442 37.8396 27.9247 38.2005 27.9969 38.4412C28.0689 38.6861 28.3616 39.1116 28.489 39.3824C28.6162 39.6531 28.7604 40.0528 28.6585 40.113C28.5567 40.169 28.4295 40.113 28.4295 40.113C28.4295 40.113 28.5143 40.328 28.3871 40.3709C28.2599 40.4139 28.0902 40.2077 28.0902 40.2077L27.8781 39.9841C27.8781 39.9841 28.0816 40.3323 28.035 40.4697C28.001 40.5643 27.8908 40.5686 27.8908 40.5686C27.8908 40.5686 27.755 40.5729 27.5769 40.2807C27.4666 40.1001 27.0721 39.3266 27.0721 39.3266C27.0721 39.3266 27.2206 40.0271 27.2206 40.2034C27.2206 40.3795 27.1654 40.4182 27.0934 40.4354C27.0212 40.4483 26.911 40.2077 26.7964 39.8208C26.6819 39.434 26.4825 39.0472 26.368 38.7636C26.2535 38.4756 26.0837 38.2477 26.0414 37.9341C25.9989 37.6203 25.7019 36.9886 25.7019 36.9886C25.7019 36.9886 25.2905 36.3008 24.9342 35.4026C24.5779 34.5002 24.2385 33.387 24.2385 33.387C24.2385 33.387 24.107 32.7466 24.0943 32.4629C24.0816 32.1794 23.9585 31.7882 23.9585 31.7882C23.9585 31.7882 23.8397 32.5188 23.8567 32.9486C23.8695 33.3784 23.9712 34.2938 24.0137 34.7795C24.0561 35.2651 24.2681 35.9958 24.4421 36.9069C24.6203 37.8654 24.9342 38.8366 24.879 40.4225C24.8239 42.0514 24.7688 41.8794 24.6966 43.0657C24.6246 44.2518 24.5354 44.4194 24.4972 45.2102C24.4675 45.9108 24.7518 46.6242 24.7941 47.7546C24.8366 48.8849 24.3827 51.5625 24.298 52.2329C24.2131 52.9033 24.2131 53.2042 24.2681 53.7199C24.3233 54.2356 24.3955 54.5623 24.3955 54.7642C24.3955 54.9663 24.5227 55.2069 24.6669 55.3918C24.8111 55.5765 25.0784 55.9376 25.0784 56.0622C25.0784 56.2641 25.0064 56.5865 24.5227 56.5865C23.9924 56.5865 23.827 56.6381 23.598 56.5994C23.4028 56.565 23.212 56.5951 23.1145 56.3502C23.0126 56.1052 22.9999 55.8343 23.0296 55.4777C23.0593 55.121 23.0593 54.4764 22.9999 54.2055C22.9447 53.9349 22.8429 53.8617 22.9024 53.634C22.9574 53.4061 23.0889 52.5896 23.072 52.134C23.0593 51.6785 22.4357 49.3276 22.4102 48.756C22.3805 48.1843 22.44 47.5354 22.44 47.1399C22.44 46.6113 22.2745 46.2675 22.16 45.9108C22.0455 45.5541 21.9012 44.8019 21.8334 43.7748C21.7612 42.7433 21.5576 42.6574 21.443 41.484C21.3285 40.3108 21.2522 39.4512 21.2522 39.4512C21.2522 39.4512 21.0784 39.4813 20.9892 39.4813C20.9044 39.4813 20.7262 39.4512 20.7262 39.4512C20.7262 39.4512 20.6456 40.3151 20.5354 41.484C20.4209 42.6574 20.2172 42.7433 20.145 43.7748C20.073 44.8019 19.9287 45.5541 19.8184 45.9108C19.7039 46.2675 19.5384 46.6113 19.5384 47.1399C19.5384 47.5354 19.5979 48.1843 19.5681 48.756C19.5384 49.3276 18.9192 51.6742 18.9065 52.134C18.8936 52.5939 19.021 53.4061 19.0761 53.634C19.1355 53.8617 19.0337 53.9349 18.9785 54.2055C18.9235 54.4764 18.9235 55.121 18.9488 55.4777C18.9785 55.8343 18.9615 56.1052 18.864 56.3502C18.7621 56.5908 18.5756 56.565 18.3805 56.5994C18.1514 56.6381 17.9817 56.5865 17.4557 56.5865C16.9721 56.5865 16.9 56.2641 16.9 56.0622C16.9 55.9376 17.1715 55.5765 17.3115 55.3918C17.4557 55.2069 17.5829 54.962 17.5829 54.7642C17.5829 54.5666 17.6551 54.2356 17.7101 53.7199C17.7653 53.2042 17.7653 52.9033 17.6805 52.2329C17.5956 51.5625 17.1418 48.8849 17.1841 47.7546C17.2267 46.6242 17.515 45.9108 17.4854 45.2102C17.4514 44.4194 17.3582 44.2518 17.286 43.0657C17.214 41.8794 17.163 42.0514 17.1036 40.4225C17.0485 38.8366 17.3624 37.8654 17.5406 36.9069C17.7101 35.9915 17.9265 35.2651 17.969 34.7795C18.0114 34.2938 18.1132 33.3784 18.1259 32.9486C18.1386 32.5188 18.0241 31.7882 18.0241 31.7882C18.0241 31.7882 17.9011 32.1794 17.8884 32.4629C17.8756 32.7466 17.7441 33.387 17.7441 33.387C17.7441 33.387 17.4005 34.5002 17.0485 35.4026C16.6921 36.3008 16.2806 36.9886 16.2806 36.9886C16.2806 36.9886 15.9795 37.616 15.9413 37.9298C15.899 38.2434 15.7292 38.4713 15.6147 38.7593C15.5002 39.0472 15.3008 39.4297 15.1863 39.8165C15.0717 40.2034 14.9615 40.444 14.8893 40.4311C14.8172 40.4182 14.7621 40.3752 14.7621 40.1991C14.7621 40.0228 14.9106 39.3223 14.9106 39.3223C14.9106 39.3223 14.5161 40.0958 14.4058 40.2764C14.2276 40.5686 14.0919 40.5643 14.0919 40.5643C14.0919 40.5643 13.9816 40.56 13.9476 40.4655C13.901 40.328 14.1046 39.9798 14.1046 39.9798L13.8925 40.2034C13.8925 40.2034 13.7228 40.4096 13.5913 40.3666C13.4641 40.3237 13.5489 40.1087 13.5489 40.1087C13.5489 40.1087 13.4216 40.1647 13.3198 40.1087C13.2223 40.0528 13.3623 39.6531 13.4895 39.3782C13.6168 39.1073 13.9095 38.6818 13.9816 38.4369C14.0537 38.1919 14.13 37.8353 14.0579 37.8224C13.9858 37.8095 13.8077 38.0544 13.5531 38.1532C13.2986 38.252 13.0823 38.2391 13.0271 38.1532C12.972 38.0673 13.1162 37.9942 13.4301 37.7664C13.744 37.5387 13.8161 37.2206 14.0452 37.139C14.2743 37.053 14.7834 36.98 14.9276 36.8683C15.0717 36.7521 15.4409 35.4672 15.5554 34.9515C15.6699 34.4356 15.6571 33.6062 15.7844 33.1077C15.9117 32.6091 16.2383 32.0374 16.3952 31.4658C16.5522 30.8943 16.6074 30.1077 16.6074 30.1077C16.6921 29.6522 16.6201 28.9216 16.5776 28.6207C16.5352 28.32 16.48 27.4775 16.7219 27.0048C16.9637 26.532 17.4471 26.3042 17.9011 26.1624C18.3549 26.0206 18.83 25.7884 19.1991 25.5908C19.5681 25.3887 19.8227 25.0364 19.8227 24.5465C19.8227 23.7642 19.6785 23.3001 19.6785 23.3001C19.6785 23.3001 19.5936 23.3001 19.4664 23.1712C19.3476 23.055 19.1949 22.7843 19.1652 22.5135C19.1355 22.2428 19.0507 21.9548 19.1652 21.929C19.2797 21.899 19.4069 22.0021 19.4069 22.0021C19.4069 22.0021 19.2754 21.0866 19.3646 20.7386C19.5045 20.1755 19.7802 19.9607 20.2172 19.7802C20.3784 19.7156 20.599 19.6855 20.7814 19.6727C20.7814 19.6727 20.8534 19.6641 20.9596 19.6641C21.0571 19.6641 21.125 19.6641 21.125 19.6641C21.125 19.6641 21.5619 19.7113 21.7316 19.7802C22.1684 19.9564 22.4441 20.1755 22.5842 20.7386C22.6732 21.0909 22.5417 22.0021 22.5417 22.0021C22.5417 22.0021 22.669 21.9033 22.7836 21.929C22.8981 21.9591 22.8132 22.2428 22.7836 22.5135C22.7539 22.7843 22.6054 23.055 22.4866 23.1712C22.3594 23.2958 22.2745 23.3001 22.2745 23.3001C22.2745 23.3001 22.1345 23.7642 22.1345 24.5465C22.1345 25.0321 22.3891 25.3887 22.758 25.5908C23.1272 25.7884 23.6276 26.0206 24.0816 26.1624C24.5354 26.3042 25.0191 26.532 25.2651 27.0048C25.5068 27.4775 25.4516 28.32 25.4093 28.6207C25.3669 28.9216 25.2948 29.6479 25.3796 30.1077C25.3796 30.1077 25.4347 30.8943 25.5917 31.4658C25.7486 32.0374 26.0752 32.6091 26.2026 33.1077C26.3298 33.6062 26.3171 34.4356 26.4316 34.9515C26.5461 35.4672 26.9151 36.7521 27.0594 36.8683C27.2036 36.9843 27.7127 37.053 27.9417 37.139C28.1708 37.2249 28.2429 37.5387 28.5567 37.7664C28.8706 37.9942 29.015 38.0673 28.9598 38.1532L28.9471 38.1575Z" fill="#2E00AB"/>
<mask id="mask0_533_776" style="mask-type:luminance" maskUnits="userSpaceOnUse" x="13" y="19" width="16" height="38">
<path d="M28.9471 38.1575C28.8876 38.2434 28.6755 38.2563 28.4211 38.1575C28.1665 38.0587 27.9883 37.8138 27.9162 37.8267C27.8442 37.8396 27.9247 38.2005 27.9969 38.4412C28.0689 38.6861 28.3616 39.1116 28.489 39.3824C28.6162 39.6531 28.7604 40.0528 28.6585 40.113C28.5567 40.169 28.4295 40.113 28.4295 40.113C28.4295 40.113 28.5143 40.328 28.3871 40.3709C28.2599 40.4139 28.0902 40.2077 28.0902 40.2077L27.8781 39.9841C27.8781 39.9841 28.0816 40.3323 28.035 40.4697C28.001 40.5643 27.8908 40.5686 27.8908 40.5686C27.8908 40.5686 27.755 40.5729 27.5769 40.2807C27.4666 40.1001 27.0721 39.3266 27.0721 39.3266C27.0721 39.3266 27.2206 40.0271 27.2206 40.2034C27.2206 40.3795 27.1654 40.4182 27.0934 40.4354C27.0212 40.4483 26.911 40.2077 26.7964 39.8208C26.6819 39.434 26.4825 39.0472 26.368 38.7636C26.2535 38.4756 26.0837 38.2477 26.0414 37.9341C25.9989 37.6203 25.7019 36.9886 25.7019 36.9886C25.7019 36.9886 25.2905 36.3008 24.9342 35.4026C24.5779 34.5002 24.2385 33.387 24.2385 33.387C24.2385 33.387 24.107 32.7466 24.0943 32.4629C24.0816 32.1794 23.9585 31.7882 23.9585 31.7882C23.9585 31.7882 23.8397 32.5188 23.8567 32.9486C23.8695 33.3784 23.9712 34.2938 24.0137 34.7795C24.0561 35.2651 24.2681 35.9958 24.4421 36.9069C24.6203 37.8654 24.9342 38.8366 24.879 40.4225C24.8239 42.0514 24.7688 41.8794 24.6966 43.0657C24.6246 44.2518 24.5354 44.4194 24.4972 45.2102C24.4675 45.9108 24.7518 46.6242 24.7941 47.7546C24.8366 48.8849 24.3827 51.5625 24.298 52.2329C24.2131 52.9033 24.2131 53.2042 24.2681 53.7199C24.3233 54.2356 24.3955 54.5623 24.3955 54.7642C24.3955 54.9663 24.5227 55.2069 24.6669 55.3918C24.8111 55.5765 25.0784 55.9376 25.0784 56.0622C25.0784 56.2641 25.0064 56.5865 24.5227 56.5865C23.9924 56.5865 23.827 56.6381 23.598 56.5994C23.4028 56.565 23.212 56.5951 23.1145 56.3502C23.0126 56.1052 22.9999 55.8343 23.0296 55.4777C23.0593 55.121 23.0593 54.4764 22.9999 54.2055C22.9447 53.9349 22.8429 53.8617 22.9024 53.634C22.9574 53.4061 23.0889 52.5896 23.072 52.134C23.0593 51.6785 22.4357 49.3276 22.4102 48.756C22.3805 48.1843 22.44 47.5354 22.44 47.1399C22.44 46.6113 22.2745 46.2675 22.16 45.9108C22.0455 45.5541 21.9012 44.8019 21.8334 43.7748C21.7612 42.7433 21.5576 42.6574 21.443 41.484C21.3285 40.3108 21.2522 39.4512 21.2522 39.4512C21.2522 39.4512 21.0784 39.4813 20.9892 39.4813C20.9044 39.4813 20.7262 39.4512 20.7262 39.4512C20.7262 39.4512 20.6456 40.3151 20.5354 41.484C20.4209 42.6574 20.2172 42.7433 20.145 43.7748C20.073 44.8019 19.9287 45.5541 19.8184 45.9108C19.7039 46.2675 19.5384 46.6113 19.5384 47.1399C19.5384 47.5354 19.5979 48.1843 19.5681 48.756C19.5384 49.3276 18.9192 51.6742 18.9065 52.134C18.8936 52.5939 19.021 53.4061 19.0761 53.634C19.1355 53.8617 19.0337 53.9349 18.9785 54.2055C18.9235 54.4764 18.9235 55.121 18.9488 55.4777C18.9785 55.8343 18.9615 56.1052 18.864 56.3502C18.7621 56.5908 18.5756 56.565 18.3805 56.5994C18.1514 56.6381 17.9817 56.5865 17.4557 56.5865C16.9721 56.5865 16.9 56.2641 16.9 56.0622C16.9 55.9376 17.1715 55.5765 17.3115 55.3918C17.4557 55.2069 17.5829 54.962 17.5829 54.7642C17.5829 54.5666 17.6551 54.2356 17.7101 53.7199C17.7653 53.2042 17.7653 52.9033 17.6805 52.2329C17.5956 51.5625 17.1418 48.8849 17.1841 47.7546C17.2267 46.6242 17.515 45.9108 17.4854 45.2102C17.4514 44.4194 17.3582 44.2518 17.286 43.0657C17.214 41.8794 17.163 42.0514 17.1036 40.4225C17.0485 38.8366 17.3624 37.8654 17.5406 36.9069C17.7101 35.9915 17.9265 35.2651 17.969 34.7795C18.0114 34.2938 18.1132 33.3784 18.1259 32.9486C18.1386 32.5188 18.0241 31.7882 18.0241 31.7882C18.0241 31.7882 17.9011 32.1794 17.8884 32.4629C17.8756 32.7466 17.7441 33.387 17.7441 33.387C17.7441 33.387 17.4005 34.5002 17.0485 35.4026C16.6921 36.3008 16.2806 36.9886 16.2806 36.9886C16.2806 36.9886 15.9795 37.616 15.9413 37.9298C15.899 38.2434 15.7292 38.4713 15.6147 38.7593C15.5002 39.0472 15.3008 39.4297 15.1863 39.8165C15.0717 40.2034 14.9615 40.444 14.8893 40.4311C14.8172 40.4182 14.7621 40.3752 14.7621 40.1991C14.7621 40.0228 14.9106 39.3223 14.9106 39.3223C14.9106 39.3223 14.5161 40.0958 14.4058 40.2764C14.2276 40.5686 14.0919 40.5643 14.0919 40.5643C14.0919 40.5643 13.9816 40.56 13.9476 40.4655C13.901 40.328 14.1046 39.9798 14.1046 39.9798L13.8925 40.2034C13.8925 40.2034 13.7228 40.4096 13.5913 40.3666C13.4641 40.3237 13.5489 40.1087 13.5489 40.1087C13.5489 40.1087 13.4216 40.1647 13.3198 40.1087C13.2223 40.0528 13.3623 39.6531 13.4895 39.3782C13.6168 39.1073 13.9095 38.6818 13.9816 38.4369C14.0537 38.1919 14.13 37.8353 14.0579 37.8224C13.9858 37.8095 13.8077 38.0544 13.5531 38.1532C13.2986 38.252 13.0823 38.2391 13.0271 38.1532C12.972 38.0673 13.1162 37.9942 13.4301 37.7664C13.744 37.5387 13.8161 37.2206 14.0452 37.139C14.2743 37.053 14.7834 36.98 14.9276 36.8683C15.0717 36.7521 15.4409 35.4672 15.5554 34.9515C15.6699 34.4356 15.6571 33.6062 15.7844 33.1077C15.9117 32.6091 16.2383 32.0374 16.3952 31.4658C16.5522 30.8943 16.6074 30.1077 16.6074 30.1077C16.6921 29.6522 16.6201 28.9216 16.5776 28.6207C16.5352 28.32 16.48 27.4775 16.7219 27.0048C16.9637 26.532 17.4471 26.3042 17.9011 26.1624C18.3549 26.0206 18.83 25.7884 19.1991 25.5908C19.5681 25.3887 19.8227 25.0364 19.8227 24.5465C19.8227 23.7642 19.6785 23.3001 19.6785 23.3001C19.6785 23.3001 19.5936 23.3001 19.4664 23.1712C19.3476 23.055 19.1949 22.7843 19.1652 22.5135C19.1355 22.2428 19.0507 21.9548 19.1652 21.929C19.2797 21.899 19.4069 22.0021 19.4069 22.0021C19.4069 22.0021 19.2754 21.0866 19.3646 20.7386C19.5045 20.1755 19.7802 19.9607 20.2172 19.7802C20.3784 19.7156 20.599 19.6855 20.7814 19.6727C20.7814 19.6727 20.8534 19.6641 20.9596 19.6641C21.0571 19.6641 21.125 19.6641 21.125 19.6641C21.125 19.6641 21.5619 19.7113 21.7316 19.7802C22.1684 19.9564 22.4441 20.1755 22.5842 20.7386C22.6732 21.0909 22.5417 22.0021 22.5417 22.0021C22.5417 22.0021 22.669 21.9033 22.7836 21.929C22.8981 21.9591 22.8132 22.2428 22.7836 22.5135C22.7539 22.7843 22.6054 23.055 22.4866 23.1712C22.3594 23.2958 22.2745 23.3001 22.2745 23.3001C22.2745 23.3001 22.1345 23.7642 22.1345 24.5465C22.1345 25.0321 22.3891 25.3887 22.758 25.5908C23.1272 25.7884 23.6276 26.0206 24.0816 26.1624C24.5354 26.3042 25.0191 26.532 25.2651 27.0048C25.5068 27.4775 25.4516 28.32 25.4093 28.6207C25.3669 28.9216 25.2948 29.6479 25.3796 30.1077C25.3796 30.1077 25.4347 30.8943 25.5917 31.4658C25.7486 32.0374 26.0752 32.6091 26.2026 33.1077C26.3298 33.6062 26.3171 34.4356 26.4316 34.9515C26.5461 35.4672 26.9151 36.7521 27.0594 36.8683C27.2036 36.9843 27.7127 37.053 27.9417 37.139C28.1708 37.2249 28.2429 37.5387 28.5567 37.7664C28.8706 37.9942 29.015 38.0673 28.9598 38.1532L28.9471 38.1575Z" fill="white"/>
</mask>
<g mask="url(#mask0_533_776)">
<path d="M34.025 17.9219H7.94141V58.7768H34.025V17.9219Z" fill="#2E00AB"/>
</g>
<path d="M25.3751 2.06841C25.3751 3.19444 24.4758 4.10557 23.3644 4.10557C22.253 4.10557 21.3538 3.19444 21.3538 2.06841C21.3538 0.942384 22.253 0.03125 23.3644 0.03125C24.4758 0.03125 25.3751 0.942384 25.3751 2.06841ZM17.9941 8.98358C16.255 8.98358 14.8467 10.4104 14.8467 12.1725C14.8467 13.9346 16.255 15.3615 17.9941 15.3615C19.7333 15.3615 21.1417 13.9346 21.1417 12.1725C21.1417 10.4104 19.7333 8.98358 17.9941 8.98358ZM10.8296 17.403C8.81043 17.403 7.17307 19.0619 7.17307 21.1076C7.17307 23.1535 8.81043 24.8123 10.8296 24.8123C12.8487 24.8123 14.4861 23.1535 14.4861 21.1076C14.4861 19.0619 12.8487 17.403 10.8296 17.403ZM5.15815 27.3308C3.13901 27.3308 1.50163 28.9898 1.50163 31.0355C1.50163 33.0814 3.13901 34.7403 5.15815 34.7403C7.17731 34.7403 8.81468 33.0814 8.81468 31.0355C8.81468 28.9898 7.17731 27.3308 5.15815 27.3308ZM3.1178 39.2488C1.39559 39.2488 0 40.6627 0 42.4075C0 44.1525 1.39559 45.5665 3.1178 45.5665C4.84001 45.5665 6.2356 44.1525 6.2356 42.4075C6.2356 40.6627 4.84001 39.2488 3.1178 39.2488ZM4.51339 51.6522C3.41049 51.6522 2.51969 52.5547 2.51969 53.6721C2.51969 54.7895 3.41049 55.6921 4.51339 55.6921C5.61629 55.6921 6.50709 54.7895 6.50709 53.6721C6.50709 52.5547 5.61629 51.6522 4.51339 51.6522Z" fill="#2E00AB"/>
<mask id="mask1_533_776" style="mask-type:luminance" maskUnits="userSpaceOnUse" x="17" y="18" width="27" height="57">
<path d="M17.6934 72.0733C17.6934 70.9472 18.5926 70.036 19.7039 70.036C20.8154 70.036 21.7146 70.9472 21.7146 72.0733C21.7146 73.1993 20.8154 74.1104 19.7039 74.1104C18.5926 74.1104 17.6934 73.1993 17.6934 72.0733ZM25.0741 65.1581C26.8134 65.1581 28.2217 63.7312 28.2217 61.9691C28.2217 60.2071 26.8134 58.7802 25.0741 58.7802C23.335 58.7802 21.9267 60.2071 21.9267 61.9691C21.9267 63.7312 23.335 65.1581 25.0741 65.1581ZM32.2387 56.7386C34.258 56.7386 35.8953 55.0798 35.8953 53.034C35.8953 50.9882 34.258 49.3293 32.2387 49.3293C30.2196 49.3293 28.5823 50.9882 28.5823 53.034C28.5823 55.0798 30.2196 56.7386 32.2387 56.7386ZM37.9101 46.8108C39.9294 46.8108 41.5667 45.1518 41.5667 43.1061C41.5667 41.0603 39.9294 39.4014 37.9101 39.4014C35.891 39.4014 34.2537 41.0603 34.2537 43.1061C34.2537 45.1518 35.891 46.8108 37.9101 46.8108ZM39.9505 34.8929C41.6727 34.8929 43.0684 33.4789 43.0684 31.7341C43.0684 29.9892 41.6727 28.5752 39.9505 28.5752C38.2283 28.5752 36.8328 29.9892 36.8328 31.7341C36.8328 33.4789 38.2283 34.8929 39.9505 34.8929ZM38.555 22.4852C39.6579 22.4852 40.5487 21.5826 40.5487 20.4652C40.5487 19.3479 39.6579 18.4453 38.555 18.4453C37.452 18.4453 36.5612 19.3479 36.5612 20.4652C36.5612 21.5826 37.452 22.4852 38.555 22.4852Z" fill="white"/>
</mask>
<g mask="url(#mask1_533_776)">
<path d="M6.15234 77.175H62.243V6.13672H6.15234V77.175Z" fill="#2E00AB"/>
<path d="M29.5625 45.6825L40.0945 50.754L45.0999 40.0832L34.5679 35.0117L29.5625 45.6825Z" fill="#2E00AB"/>
</g>
<mask id="mask2_533_776" style="mask-type:luminance" maskUnits="userSpaceOnUse" x="1" y="27" width="8" height="8">
<path d="M5.15848 34.7374C7.17791 34.7374 8.815 33.0789 8.815 31.0327C8.815 28.9867 7.17791 27.3281 5.15848 27.3281C3.13902 27.3281 1.50195 28.9867 1.50195 31.0327C1.50195 33.0789 3.13902 34.7374 5.15848 34.7374Z" fill="white"/>
</mask>
<g mask="url(#mask2_533_776)">
<path d="M-0.349609 33.0146L7.11362 36.6084L10.6606 29.0467L3.19738 25.4531L-0.349609 33.0146Z" fill="#2E00AB"/>
</g>
<path d="M205.597 28.2086C207.031 29.382 207.914 31.0022 208.215 33.0135H205.291C204.961 31.6728 204.329 30.6669 203.392 30.0266C202.453 29.3863 201.296 29.0768 199.862 29.0768C197.741 29.0768 196.142 29.8032 195.065 31.2816C194.047 32.6226 193.551 34.4662 193.551 36.7827C193.551 39.0993 194.047 41.029 195.038 42.3398C196.086 43.7366 197.711 44.4328 199.918 44.4328C201.351 44.4328 202.564 44.0676 203.501 43.3455C204.494 42.5634 205.182 41.39 205.567 39.8257H208.489C208.05 42.1422 207.031 43.96 205.402 45.2709C203.888 46.5001 202.068 47.1147 199.943 47.1147C196.719 47.1147 194.293 46.0532 192.664 43.986C191.229 42.198 190.543 39.7956 190.543 36.7784C190.543 33.7614 191.259 31.4148 192.748 29.5453C194.402 27.4222 196.774 26.3906 199.918 26.3906C202.204 26.3906 204.108 26.9752 205.597 28.2043V28.2086Z" fill="#2E00AB"/>
<path d="M161.094 26.7852V46.727H158.115V26.7852H161.094Z" fill="#2E00AB"/>
<path d="M69.7369 37.6414C69.0751 36.8291 68.0825 36.3005 66.7887 36.0513C67.7814 35.6902 68.5237 35.1315 69.0751 34.4051C69.6265 33.623 69.9023 32.6732 69.9023 31.5557C69.9023 30.0214 69.3805 28.8181 68.3328 27.9241C67.2298 26.9743 65.741 26.5273 63.8109 26.5273H54.8223V29.136H57.8256V29.0415H63.0644C64.3878 29.0415 65.3804 29.2651 65.987 29.7378C66.5936 30.1847 66.8948 30.9111 66.8948 31.9167C66.8948 32.9783 66.5936 33.7605 65.987 34.2633C65.3804 34.7404 64.3878 34.9897 63.0092 34.9897H59.4587H54.8223V46.4691H63.8109C65.9064 46.4691 67.5311 46.078 68.689 45.2958C70.038 44.346 70.7294 42.8933 70.7294 40.882C70.7294 39.541 70.3985 38.4537 69.7369 37.6414ZM66.373 43.3403C65.6561 43.7314 64.6635 43.9548 63.3953 43.9548H57.8256V37.4738H63.4758C64.9095 37.4738 65.9827 37.7273 66.6742 38.2559C67.3613 38.7847 67.7219 39.6527 67.7219 40.8261C67.7219 41.9993 67.2511 42.8074 66.373 43.3403Z" fill="#2E00AB"/>
<path d="M115.741 29.4928C114.086 27.6791 111.689 26.7852 108.517 26.7852H101.348V29.394H104.351V29.3811H107.961C110.442 29.3811 112.262 29.9656 113.42 31.169C114.523 32.3423 115.1 34.186 115.1 36.7561C115.1 39.3262 114.523 41.114 113.391 42.3132C112.232 43.5123 110.387 44.1269 107.906 44.1269H104.351V35.2476H101.348V46.727H108.461C111.63 46.727 114.031 45.833 115.685 44.0452C117.255 42.3132 118.057 39.8849 118.057 36.7561C118.057 33.6273 117.285 31.169 115.741 29.4928Z" fill="#2E00AB"/>
<path d="M93.1101 29.094C91.3751 27.1127 89.0039 26.1328 86.0261 26.1328C83.0482 26.1328 80.6516 27.1084 78.9421 29.1197C77.2876 31.0194 76.4902 33.4777 76.4902 36.5206C76.4902 39.5634 77.2919 41.9959 78.9421 43.8956C80.6516 45.851 83.0227 46.8569 86.0261 46.8569C89.0293 46.8569 91.3751 45.8813 93.1101 43.9256C94.7644 42.026 95.5916 39.5677 95.5916 36.5249C95.5916 33.482 94.7644 30.9678 93.1101 29.094ZM90.8787 42.1121C89.7504 43.4788 88.1215 44.1793 86.0261 44.1793C83.9305 44.1793 82.3059 43.4529 81.1479 42.0561C80.045 40.6895 79.4935 38.8457 79.4935 36.5249C79.4935 34.2041 80.045 32.3345 81.1479 30.9678C82.3059 29.5152 83.9305 28.819 86.0261 28.819C88.1215 28.819 89.7461 29.4894 90.8787 30.8862C91.9816 32.2529 92.5585 34.1267 92.5585 36.5292C92.5585 38.9317 91.9816 40.7754 90.8787 42.1164V42.1121Z" fill="#2E00AB"/>
<mask id="mask3_533_776" style="mask-type:luminance" maskUnits="userSpaceOnUse" x="84" y="34" width="4" height="4">
<path d="M87.5424 34.5859H84.5391V37.6287H87.5424V34.5859Z" fill="white"/>
</mask>
<g mask="url(#mask3_533_776)">
<path d="M84.1523 38.0188H87.8258V34.2969H84.1523V38.0188Z" fill="#2E00AB"/>
</g>
<path d="M122.697 26.5273L130.502 38.5096V46.4691H133.476V38.0454L126.311 26.5273H122.697Z" fill="#2E00AB"/>
<path d="M140.822 26.5273H137.818V29.5701H140.822V26.5273Z" fill="#2E00AB"/>
<path d="M185.197 26.7852H182.193V29.8281H185.197V26.7852Z" fill="#2E00AB"/>
<path d="M172.021 26.7852H168.988V46.727H171.992V31.7277H172.102L182.274 46.727H185.456L172.021 26.7852Z" fill="#2E00AB"/>
<path d="M213.999 44.1797H210.996V47.2225H213.999V44.1797Z" fill="#2E00AB"/>
</g>
<defs>
<clipPath id="clip0_533_776">
<rect width="214" height="74.8559" fill="white"/>
</clipPath>
</defs>
</svg>
